# xmcd
#
# Track frame offsets:
#	150
#	19668
#	48891
#	65102
#	80779
#	87289
#	103014
#	121415
#	149132
#	170198
#	189070
#	200002
#	219051
#	236021
#
# Disc length: 3191 seconds
#
# Revision: 0
# Processed by: cddbd v1.5.1PL2 Copyright (c) Steve Scherf et al.
# Submitted via: SynApp - FreeCDDB Version: 2.0
#
DISCID=cb0c750e
DTITLE=Felder, Thomas - Bewegnung
DYEAR=1998
DGENRE=A capella
TTITLE0=Butzlomba
TTITLE1=Ein L‰‰berk‰‰s
TTITLE2=Der Modeschˆpfer
TTITLE3=Raddakopf
TTITLE4=Herrgott Hilfe
TTITLE5=Vo danne denne
TTITLE6=Moanano
TTITLE7=Guantanamera
TTITLE8=Dae Herz
TTITLE9=Laﬂ d‰‰ Berg
TTITLE10=Mae Liacht
TTITLE11=Bewegnong
TTITLE12=Nein, ich will frei sein
TTITLE13=Schr‰gvogel
EXTD=
EXTT0=
EXTT1=
EXTT2=
EXTT3=
EXTT4=
EXTT5=
EXTT6=
EXTT7=
EXTT8=
EXTT9=
EXTT10=
EXTT11=
EXTT12=
EXTT13=
PLAYORDER=
